<svg width="22" height="23" viewBox="0 0 22 23" fill="none" xmlns="http://www.w3.org/2000/svg">
<path d="M1.24729 12.3087C0.661223 11.8448 0.661223 10.9977 1.24729 10.4166L10.2516 1.48768C10.533 1.20859 10.9147 1.02942 11.3128 0.989572C11.7108 0.949724 12.0925 1.05246 12.3739 1.27519L21.3782 8.40113C21.9643 8.86494 21.9643 9.71206 21.3782 10.2932C20.7921 10.8744 19.8419 10.9695 19.2559 10.5057L12.8135 5.40721L12.8135 20.9079C12.8135 21.6468 12.1416 22.313 11.3128 22.396C10.4839 22.479 9.81204 21.9473 9.81204 21.2084L9.81204 5.70771L3.36962 12.0962C2.78356 12.6773 1.83335 12.7725 1.24729 12.3087Z" fill="#080808"/>
</svg>
