<svg width="22" height="23" viewBox="0 0 22 23" fill="none" xmlns="http://www.w3.org/2000/svg">
<path d="M21.3782 11.0771C21.9643 11.5409 21.9643 12.388 21.3782 12.9692L12.3739 21.8981C12.0925 22.1771 11.7107 22.3563 11.3127 22.3962C10.9147 22.436 10.533 22.3333 10.2516 22.1105L1.24727 14.9846C0.661208 14.5208 0.661208 13.6737 1.24727 13.0925C1.83334 12.5114 2.78354 12.4162 3.36961 12.88L9.81202 17.9785L9.81202 2.47787C9.81202 1.73896 10.4839 1.07269 11.3127 0.989716C12.1416 0.906737 12.8135 1.43847 12.8135 2.17737L12.8135 17.678L19.2559 11.2896C19.8419 10.7084 20.7921 10.6133 21.3782 11.0771Z" fill="#080808"/>
</svg>
