<svg width="21" height="19" viewBox="0 0 21 19" fill="none" xmlns="http://www.w3.org/2000/svg">
<path d="M5.31131 0.932442C5.46833 0.201732 6.22821 -0.172676 7.00856 0.0961778L18.9977 4.22685C19.3725 4.35595 19.7019 4.61917 19.9136 4.95859C20.1252 5.298 20.2018 5.68582 20.1264 6.03672L17.7139 17.2633C17.5569 17.994 16.797 18.3684 16.0167 18.0996C15.2364 17.8307 14.7311 17.0204 14.8881 16.2897L16.6141 8.25728L2.70964 15.1083C2.04683 15.4349 1.1522 15.1266 0.711444 14.4198C0.270686 13.713 0.450699 12.8753 1.11351 12.5487L15.018 5.69773L6.43995 2.74231C5.6596 2.47346 5.1543 1.66315 5.31131 0.932442Z" fill="#080808"/>
</svg>
