<svg width="73" height="19" viewBox="0 0 73 19" fill="none" xmlns="http://www.w3.org/2000/svg">
<path d="M0.35 18V0.499999H3.6V15.25H12.75V18H0.35ZM23.1984 18.25C21.8318 18.25 20.5734 18.025 19.4234 17.575C18.2734 17.125 17.2734 16.5 16.4234 15.7C15.5734 14.8833 14.9151 13.9333 14.4484 12.85C13.9818 11.75 13.7484 10.55 13.7484 9.25C13.7484 7.95 13.9818 6.75833 14.4484 5.675C14.9151 4.575 15.5734 3.625 16.4234 2.825C17.2734 2.00833 18.2734 1.375 19.4234 0.924999C20.5734 0.474999 21.8234 0.249999 23.1734 0.249999C24.5401 0.249999 25.7901 0.474999 26.9234 0.924999C28.0734 1.375 29.0734 2.00833 29.9234 2.825C30.7734 3.625 31.4318 4.575 31.8984 5.675C32.3651 6.75833 32.5984 7.95 32.5984 9.25C32.5984 10.55 32.3651 11.75 31.8984 12.85C31.4318 13.95 30.7734 14.9 29.9234 15.7C29.0734 16.5 28.0734 17.125 26.9234 17.575C25.7901 18.025 24.5484 18.25 23.1984 18.25ZM23.1734 15.4C24.0568 15.4 24.8734 15.25 25.6234 14.95C26.3734 14.65 27.0234 14.225 27.5734 13.675C28.1234 13.1083 28.5484 12.4583 28.8484 11.725C29.1651 10.975 29.3234 10.15 29.3234 9.25C29.3234 8.35 29.1651 7.53333 28.8484 6.8C28.5484 6.05 28.1234 5.4 27.5734 4.85C27.0234 4.28333 26.3734 3.85 25.6234 3.55C24.8734 3.25 24.0568 3.1 23.1734 3.1C22.2901 3.1 21.4734 3.25 20.7234 3.55C19.9901 3.85 19.3401 4.28333 18.7734 4.85C18.2234 5.4 17.7901 6.05 17.4734 6.8C17.1734 7.53333 17.0234 8.35 17.0234 9.25C17.0234 10.1333 17.1734 10.95 17.4734 11.7C17.7901 12.45 18.2234 13.1083 18.7734 13.675C19.3234 14.225 19.9734 14.65 20.7234 14.95C21.4734 15.25 22.2901 15.4 23.1734 15.4ZM44.2184 18.25C42.8517 18.25 41.5934 18.0333 40.4434 17.6C39.31 17.15 38.3184 16.525 37.4684 15.725C36.6184 14.9083 35.96 13.95 35.4934 12.85C35.0267 11.75 34.7934 10.55 34.7934 9.25C34.7934 7.95 35.0267 6.75 35.4934 5.65C35.96 4.55 36.6184 3.6 37.4684 2.8C38.335 1.98333 39.3434 1.35833 40.4934 0.924999C41.6434 0.474999 42.9017 0.249999 44.2684 0.249999C45.7517 0.249999 47.085 0.491666 48.2684 0.974999C49.4684 1.45833 50.4767 2.16667 51.2934 3.1L49.2434 5.1C48.56 4.41667 47.8184 3.91667 47.0184 3.6C46.235 3.26667 45.3684 3.1 44.4184 3.1C43.5017 3.1 42.6517 3.25 41.8684 3.55C41.085 3.85 40.41 4.275 39.8434 4.825C39.2767 5.375 38.835 6.025 38.5184 6.775C38.2184 7.525 38.0684 8.35 38.0684 9.25C38.0684 10.1333 38.2184 10.95 38.5184 11.7C38.835 12.45 39.2767 13.1083 39.8434 13.675C40.41 14.225 41.0767 14.65 41.8434 14.95C42.61 15.25 43.46 15.4 44.3934 15.4C45.26 15.4 46.0934 15.2667 46.8934 15C47.71 14.7167 48.485 14.25 49.2184 13.6L51.0684 16.025C50.1517 16.7583 49.085 17.3167 47.8684 17.7C46.6684 18.0667 45.4517 18.25 44.2184 18.25ZM47.9934 15.6V9.05H51.0684V16.025L47.9934 15.6ZM63.5549 18.25C62.1882 18.25 60.9299 18.025 59.7799 17.575C58.6299 17.125 57.6299 16.5 56.7799 15.7C55.9299 14.8833 55.2715 13.9333 54.8049 12.85C54.3382 11.75 54.1049 10.55 54.1049 9.25C54.1049 7.95 54.3382 6.75833 54.8049 5.675C55.2715 4.575 55.9299 3.625 56.7799 2.825C57.6299 2.00833 58.6299 1.375 59.7799 0.924999C60.9299 0.474999 62.1799 0.249999 63.5299 0.249999C64.8966 0.249999 66.1466 0.474999 67.2799 0.924999C68.4299 1.375 69.4299 2.00833 70.2799 2.825C71.1299 3.625 71.7882 4.575 72.2549 5.675C72.7216 6.75833 72.9549 7.95 72.9549 9.25C72.9549 10.55 72.7216 11.75 72.2549 12.85C71.7882 13.95 71.1299 14.9 70.2799 15.7C69.4299 16.5 68.4299 17.125 67.2799 17.575C66.1466 18.025 64.9049 18.25 63.5549 18.25ZM63.5299 15.4C64.4132 15.4 65.2299 15.25 65.9799 14.95C66.7299 14.65 67.3799 14.225 67.9299 13.675C68.4799 13.1083 68.9049 12.4583 69.2049 11.725C69.5216 10.975 69.6799 10.15 69.6799 9.25C69.6799 8.35 69.5216 7.53333 69.2049 6.8C68.9049 6.05 68.4799 5.4 67.9299 4.85C67.3799 4.28333 66.7299 3.85 65.9799 3.55C65.2299 3.25 64.4132 3.1 63.5299 3.1C62.6466 3.1 61.8299 3.25 61.0799 3.55C60.3465 3.85 59.6965 4.28333 59.1299 4.85C58.5799 5.4 58.1465 6.05 57.8299 6.8C57.5299 7.53333 57.3799 8.35 57.3799 9.25C57.3799 10.1333 57.5299 10.95 57.8299 11.7C58.1465 12.45 58.5799 13.1083 59.1299 13.675C59.6799 14.225 60.3299 14.65 61.0799 14.95C61.8299 15.25 62.6466 15.4 63.5299 15.4Z" fill="white"/>
</svg>
