<svg width="22" height="21" viewBox="0 0 22 21" fill="none" xmlns="http://www.w3.org/2000/svg">
<path d="M21.5661 0.478321C21.8095 0.768477 21.8682 1.17129 21.7175 1.51882L13.7138 19.9834C13.5604 20.3373 13.2171 20.5715 12.8315 20.5851C12.446 20.5986 12.087 20.3893 11.9091 20.047L7.75858 12.0642L0.617771 6.59054C0.311598 6.35585 0.167725 5.96598 0.248051 5.58866C0.328377 5.21135 0.618575 4.91388 0.993792 4.82425L20.5677 0.148474C20.9361 0.06047 21.3226 0.188165 21.5661 0.478321ZM9.8006 11.6561L12.7144 17.2603L18.1978 4.61004L9.8006 11.6561ZM16.9122 3.07796L3.50195 6.28138L8.51502 10.124L16.9122 3.07796Z" fill="#0D0D0D"/>
</svg>
