<svg width="35" height="32" viewBox="0 0 35 32" fill="none" xmlns="http://www.w3.org/2000/svg">
<path d="M17.5 30.9661C22.1235 30.9661 26.3095 29.2698 29.3405 26.5292C32.3715 23.7887 34.2475 20.0037 34.2475 15.8232C34.2475 11.6427 32.3715 7.85782 29.3405 5.11724C26.3095 2.37665 22.1235 0.6804 17.5 0.6804C12.8765 0.6804 8.6905 2.37665 5.6595 5.11724C2.6285 7.85782 0.752501 11.6427 0.752501 15.8232C0.752501 20.0037 2.6285 23.7887 5.6595 26.5292C8.6905 29.2698 12.8765 30.9661 17.5 30.9661ZM29.876 27.0134C26.7085 29.8743 22.3335 31.6465 17.5 31.6465C12.6665 31.6465 8.2915 29.8743 5.124 27.0134C1.96 24.1494 0 20.1936 0 15.8232C0 11.4529 1.96 7.49705 5.124 4.63305C8.2915 1.7722 12.6665 0 17.5 0C22.3335 0 26.7085 1.7722 29.876 4.63305C33.04 7.49705 35 11.4529 35 15.8232C35 20.1936 33.04 24.1494 29.876 27.0134Z" fill="#DBE2E7"/>
<path d="M9.91712 15.656L10.3686 24.0455C10.3686 24.0455 10.3686 24.0518 10.3686 24.0581C10.3686 24.7765 11.0161 25.3651 11.8141 25.3651H23.1821C23.9801 25.3651 24.6276 24.7765 24.6276 24.0581C24.6276 24.0518 24.6276 24.0455 24.6311 24.0455L25.0791 15.656C25.0756 14.9376 24.4281 14.3585 23.6336 14.3585H11.3626C10.5681 14.3585 9.92062 14.9376 9.91712 15.656ZM23.1821 26.0107H11.8141C10.6241 26.0107 9.65812 25.1404 9.65462 24.0676L9.20312 15.6781C9.20312 15.6781 9.20312 15.6718 9.20312 15.6655C9.20312 14.5895 10.1726 13.7129 11.3626 13.7129H23.6336C24.8236 13.7129 25.7931 14.5895 25.7931 15.6655C25.7931 15.6718 25.7931 15.6781 25.7931 15.6781L25.3416 24.0676C25.3381 25.1404 24.3721 26.0107 23.1821 26.0107Z" fill="#0B0C10"/>
<path d="M16.0626 22.7509H18.9326C18.8206 22.1306 18.5616 20.8363 18.2256 19.7761C18.1836 19.6464 18.2396 19.5103 18.3621 19.428C18.7576 19.1748 18.9956 18.7634 18.9956 18.3267C18.9956 17.5799 18.3236 16.9691 17.4976 16.9691C16.6716 16.9691 16.0031 17.5799 16.0031 18.3267C16.0031 18.7634 16.2376 19.1748 16.6331 19.428C16.7556 19.5103 16.8116 19.6464 16.7696 19.7761C16.4336 20.8363 16.1781 22.1306 16.0626 22.7509ZM19.3526 23.3965H15.6461C15.5411 23.3965 15.4431 23.3553 15.3731 23.2857C15.3066 23.2098 15.2786 23.1212 15.2926 23.0262C15.3031 22.9503 15.5831 21.254 16.0206 19.8046C15.5551 19.428 15.2891 18.8932 15.2891 18.3267C15.2891 17.2223 16.2796 16.3267 17.4976 16.3267C18.7156 16.3267 19.7061 17.2223 19.7061 18.3267C19.7061 18.8932 19.4401 19.428 18.9746 19.8046C19.4156 21.254 19.6921 22.9503 19.7026 23.0262C19.7201 23.1212 19.6886 23.2098 19.6221 23.2857C19.5556 23.3553 19.4541 23.3965 19.3526 23.3965Z" fill="#0B0C10"/>
<path d="M23.6652 14.3591C23.4692 14.3591 23.3082 14.2135 23.3082 14.0363V10.9571C23.3082 8.91273 22.6012 5.48225 17.8517 5.48225C13.0987 5.48225 12.3917 8.91273 12.3917 10.9571V11.6343C12.3917 11.8115 12.2307 11.9571 12.0347 11.9571C11.8387 11.9571 11.6777 11.8115 11.6777 11.6343V10.9571C11.6777 7.06457 13.9282 4.8335 17.8517 4.8335C21.7717 4.8335 24.0222 7.06457 24.0222 10.9571V14.0363C24.0222 14.2135 23.8612 14.3591 23.6652 14.3591Z" fill="#0B0C10"/>
</svg>
