<svg width="21" height="21" viewBox="0 0 21 21" fill="none" xmlns="http://www.w3.org/2000/svg">
<path d="M2.73944 2H7.22938L8.67659 5.61803L6.35171 7.16795C6.07352 7.35342 5.90641 7.66565 5.90641 8C5.90895 8.09363 5.90642 8.001 5.90642 8.001L5.90642 8.00205L5.90642 8.00429L5.90645 8.00933L5.9066 8.02167C5.90675 8.03089 5.907 8.04208 5.90742 8.05519C5.90827 8.0814 5.9098 8.1153 5.91254 8.15636C5.91801 8.23846 5.92833 8.34944 5.94772 8.48517C5.98647 8.75646 6.06169 9.12811 6.20773 9.56623C6.50097 10.4459 7.07715 11.5849 8.19931 12.7071C9.32147 13.8293 10.4605 14.4054 11.3402 14.6987C11.7783 14.8447 12.1499 14.9199 12.4212 14.9587C12.557 14.9781 12.668 14.9884 12.7501 14.9939C12.7911 14.9966 12.825 14.9981 12.8512 14.999C12.8643 14.9994 12.8755 14.9997 12.8847 14.9998L12.8971 15L12.9021 15L12.9044 15L12.9054 15C12.9054 15 13.017 14.9939 12.9064 15C13.2852 15 13.6314 14.786 13.8008 14.4472L14.4705 13.1078L18.9064 13.8471V18.167C16.7953 18.4723 11.0938 18.7732 6.61352 14.2929C2.13322 9.81259 2.43413 4.1111 2.73944 2ZM7.98006 8.48609L9.78599 7.28213C10.5729 6.75751 10.8848 5.75338 10.5335 4.87525L9.08634 1.25722C8.78261 0.497902 8.04719 0 7.22938 0H2.68719C1.77868 0 0.923502 0.631162 0.774358 1.6169C0.435048 3.8595 -0.0267997 10.481 5.19931 15.7071C10.4254 20.9332 17.0469 20.4714 19.2895 20.1321C20.2753 19.9829 20.9064 19.1277 20.9064 18.2192V13.8471C20.9064 12.8694 20.1996 12.0351 19.2352 11.8743L14.7993 11.135C13.9333 10.9907 13.0743 11.4281 12.6817 12.2134L12.3352 12.9064C12.2263 12.8796 12.1047 12.8453 11.9726 12.8013C11.3523 12.5946 10.4914 12.1707 9.61352 11.2929C8.73568 10.4151 8.31186 9.55407 8.1051 8.93377C8.04923 8.76616 8.009 8.61545 7.98006 8.48609Z" fill="#0B0C10"/>
</svg>
