<svg width="11" height="11" viewBox="0 0 11 11" fill="none" xmlns="http://www.w3.org/2000/svg">
<path d="M3.96508 8.44219C3.91392 8.44219 3.86787 8.43196 3.81671 8.41149C3.67345 8.35521 3.58136 8.21196 3.58136 8.05847V4.9887C3.58136 4.77893 3.75531 4.60498 3.96508 4.60498C4.17485 4.60498 4.3488 4.77893 4.3488 4.9887V7.13242L4.71717 6.76405C4.86555 6.61568 5.11113 6.61568 5.2595 6.76405C5.40787 6.91242 5.40787 7.158 5.2595 7.30638L4.23624 8.32963C4.16462 8.40126 4.06229 8.44219 3.96508 8.44219Z" fill="black"/>
<path d="M3.96484 8.44225C3.86763 8.44225 3.77042 8.40644 3.69368 8.32969L2.67042 7.30644C2.52205 7.15806 2.52205 6.91248 2.67042 6.76411C2.81879 6.61574 3.06438 6.61574 3.21275 6.76411L4.236 7.78737C4.38438 7.93574 4.38438 8.18132 4.236 8.32969C4.15926 8.40644 4.06205 8.44225 3.96484 8.44225Z" fill="black"/>
<path d="M7.03488 11H3.96512C1.18698 11 0 9.81302 0 7.03488V3.96512C0 1.18698 1.18698 0 3.96512 0H6.52326C6.73302 0 6.90698 0.173953 6.90698 0.383721C6.90698 0.593488 6.73302 0.767442 6.52326 0.767442H3.96512C1.60651 0.767442 0.767442 1.60651 0.767442 3.96512V7.03488C0.767442 9.39349 1.60651 10.2326 3.96512 10.2326H7.03488C9.39349 10.2326 10.2326 9.39349 10.2326 7.03488V4.47674C10.2326 4.26698 10.4065 4.09302 10.6163 4.09302C10.826 4.09302 11 4.26698 11 4.47674V7.03488C11 9.81302 9.81302 11 7.03488 11Z" fill="black"/>
<path d="M10.6163 4.86069H8.56976C6.81999 4.86069 6.13953 4.18022 6.13953 2.43045V0.383942C6.13953 0.230454 6.23162 0.0871981 6.37488 0.030919C6.51813 -0.0304763 6.68185 0.0053376 6.79441 0.112779L10.8874 4.2058C10.9949 4.31324 11.0307 4.48209 10.9693 4.62534C10.9079 4.7686 10.7698 4.86069 10.6163 4.86069ZM6.90697 1.30999V2.43045C6.90697 3.75045 7.24976 4.09325 8.56976 4.09325H9.69022L6.90697 1.30999Z" fill="black"/>
</svg>
