<svg width="35" height="31" viewBox="0 0 35 31" fill="none" xmlns="http://www.w3.org/2000/svg">
<path d="M17.5 30.0385C22.1235 30.0385 26.3095 28.393 29.3405 25.7345C32.3715 23.0761 34.2475 19.4045 34.2475 15.3492C34.2475 11.294 32.3715 7.62243 29.3405 4.96394C26.3095 2.30546 22.1235 0.660018 17.5 0.660018C12.8765 0.660018 8.6905 2.30546 5.6595 4.96394C2.6285 7.62243 0.752501 11.294 0.752501 15.3492C0.752501 19.4045 2.6285 23.0761 5.6595 25.7345C8.6905 28.393 12.8765 30.0385 17.5 30.0385ZM29.876 26.2042C26.7085 28.9794 22.3335 30.6985 17.5 30.6985C12.6665 30.6985 8.2915 28.9794 5.124 26.2042C1.96 23.426 0 19.5887 0 15.3492C0 11.1098 1.96 7.27247 5.124 4.49426C8.2915 1.71912 12.6665 0 17.5 0C22.3335 0 26.7085 1.71912 29.876 4.49426C33.04 7.27247 35 11.1098 35 15.3492C35 19.5887 33.04 23.426 29.876 26.2042Z" fill="#DBE2E7"/>
<path d="M17.5 25.8418C20.8025 25.8418 23.7925 24.6665 25.9575 22.7676C28.1225 20.8686 29.4625 18.2461 29.4625 15.3495C29.4625 12.4529 28.1225 9.83034 25.9575 7.93142C23.7925 6.0325 20.8025 4.85718 17.5 4.85718C14.1975 4.85718 11.2075 6.0325 9.0425 7.93142C6.8775 9.83034 5.5375 12.4529 5.5375 15.3495C5.5375 18.2461 6.8775 20.8686 9.0425 22.7676C11.2075 24.6665 14.1975 25.8418 17.5 25.8418ZM26.34 23.103C24.0775 25.0853 20.9525 26.3132 17.5 26.3132C14.0475 26.3132 10.9225 25.0853 8.66 23.103C6.4 21.1186 5 18.3777 5 15.3495C5 12.3213 6.4 9.58036 8.66 7.59593C10.9225 5.61368 14.0475 4.38574 17.5 4.38574C20.9525 4.38574 24.0775 5.61368 26.34 7.59593C28.6 9.58036 30 12.3213 30 15.3495C30 18.3777 28.6 21.1186 26.34 23.103Z" fill="#0B0C10"/>
<path d="M17.5026 21.3593C15.6791 21.3593 13.1276 20.3893 13.0226 20.3494C12.8791 20.2941 12.7881 20.156 12.8126 20.0147C12.8266 19.9595 13.0611 18.6364 13.7961 17.3409C14.0901 16.8129 14.4296 16.3555 14.8006 15.9902C14.9301 15.8612 15.1576 15.849 15.3011 15.9656C15.4516 16.0792 15.4586 16.2787 15.3326 16.4077C15.0071 16.73 14.7026 17.1383 14.4296 17.6172C13.9326 18.5167 13.6736 19.4438 13.5686 19.8705C14.2581 20.113 16.1481 20.7331 17.5026 20.7331C18.8641 20.7331 20.9081 20.1068 21.6431 19.8674C21.4611 19.1552 20.8241 17.1168 19.4171 16.0761C19.2736 15.9656 19.2526 15.7661 19.3786 15.6371C19.5081 15.5021 19.7286 15.4867 19.8791 15.5972C21.7936 17.0124 22.3851 19.8889 22.4061 20.0086C22.4376 20.156 22.3466 20.2972 22.1856 20.3524C22.0736 20.3954 19.3191 21.3593 17.5026 21.3593Z" fill="#0B0C10"/>
<path d="M17.5328 16.0086C16.1398 16.0086 15.0583 14.6671 14.6488 13.4177C14.5893 13.255 14.7013 13.08 14.8903 13.0309C15.0793 12.9848 15.2753 13.08 15.3313 13.2427C15.6778 14.2834 16.5633 15.3824 17.5328 15.3824C18.6913 15.3824 19.8183 13.7646 19.8848 12.4906C19.8918 12.3187 20.0668 12.1836 20.2558 12.1928C20.4518 12.202 20.6058 12.3463 20.5953 12.5213C20.5218 13.9089 19.2583 16.0086 17.5328 16.0086Z" fill="#0B0C10"/>
<path d="M17.729 9.83425C16.063 9.83425 14.7086 11.0223 14.7086 12.4835C14.7086 12.7813 14.754 13.0668 14.8135 13.2817C15.9125 13.1589 17.6275 12.6063 18.4675 11.9617C18.702 11.7836 18.793 11.6485 18.8385 11.5656C18.9015 11.4306 19.066 11.3538 19.234 11.3815C19.3985 11.4122 19.5211 11.538 19.5211 11.6854C19.5281 11.8818 19.521 12.0814 19.507 12.2717C19.4965 12.4037 19.4825 12.5234 19.4685 12.6248C19.976 12.5388 20.536 12.3822 20.725 12.1888C20.557 10.8596 19.262 9.83425 17.729 9.83425ZM14.5475 13.9294C14.397 13.9294 14.2605 13.8465 14.208 13.7176C14.11 13.4475 13.998 12.9809 13.998 12.4835C13.998 10.6785 15.6675 9.20801 17.729 9.20801C19.6715 9.20801 21.306 10.5434 21.4495 12.2472C21.4495 12.3024 21.4355 12.3607 21.411 12.4099C21.012 13.1006 19.3915 13.2817 19.073 13.3124C18.954 13.3216 18.8386 13.2817 18.7651 13.2019C18.6881 13.1251 18.6565 13.0177 18.688 12.9195C18.688 12.9164 18.7265 12.7936 18.758 12.5603C17.673 13.297 15.7061 13.8803 14.5651 13.9294C14.5651 13.9294 14.558 13.9294 14.5475 13.9294Z" fill="#0B0C10"/>
</svg>
